<?xml version="1.0" encoding="UTF-8"?>
<svg width="166px" height="45px" viewBox="0 0 166 45" version="1.1" xmlns="http://www.w3.org/2000/svg" xmlns:xlink="http://www.w3.org/1999/xlink">
    <title>C7D799A2-F3E4-4683-B1A5-C23C23B36293</title>
    <g id="Symbols" stroke="none" stroke-width="1" fill="none" fill-rule="evenodd">
        <g id="SCE-logo-horizontal/SCE-logo_horizontal_cmyk">
            <g id="Group-6" transform="translate(-0.000000, 0.000000)">
                <polygon id="Fill-1" fill="#FFFFFE" points="0 44.975 44.93 44.975 44.93 0 0 0"></polygon>
                <polyline id="Fill-3" fill="#FACB4E" points="0.028 27.558 18.795 29.149 5.036 19.077 20.813 24.833 5.64 5.618 24.849 20.685 19.077 5.035 28.66 18.332 27.807 0.021 33.816 18.388 38.293 0 0 0 0 38.293 0.016 38.293 18.571 34.137 0.028 27.558"></polyline>
                <polyline id="Fill-4" fill="#005E49" points="0 38.316 38.293 38.316 38.293 0 44.93 0 44.93 44.999 0 44.999 0 38.316"></polyline>
                <path d="M163.786,23.155 C165.046,23.155 166.069,22.133 166.069,20.873 C166.069,19.611 165.046,18.59 163.786,18.59 C162.526,18.59 161.504,19.611 161.504,20.873 C161.504,22.133 162.526,23.155 163.786,23.155 Z" id="Stroke-5" stroke="#6D6D6C" stroke-width="0.25"></path>
            </g>
            <path d="M162.649,22.235 C162.829,22.224 163.016,22.214 163.188,22.214 C163.329,22.214 163.516,22.224 163.697,22.235 L163.697,22.141 L163.6,22.141 C163.42,22.141 163.376,22.1 163.376,21.892 L163.376,21.003 C163.707,21.003 163.715,21.027 163.864,21.219 L164.642,22.235 C164.746,22.224 164.854,22.214 164.961,22.214 C165.074,22.214 165.182,22.224 165.289,22.235 L165.289,22.141 C165.129,22.128 165.05,22.112 164.89,21.903 L164.321,21.163 C164.232,21.052 164.149,20.975 164.084,20.924 C164.563,20.823 164.797,20.509 164.797,20.136 C164.797,19.512 164.325,19.35 163.8,19.35 C163.616,19.35 163.432,19.372 163.188,19.372 C163.016,19.372 162.829,19.361 162.649,19.35 L162.649,19.446 L162.745,19.446 C162.924,19.446 162.968,19.485 162.968,19.694 L162.968,21.892 C162.968,22.1 162.924,22.141 162.745,22.141 L162.649,22.141 L162.649,22.235 Z M163.376,19.588 C163.376,19.5 163.397,19.491 163.525,19.491 C164.272,19.491 164.36,19.857 164.36,20.212 C164.36,20.47 164.252,20.884 163.565,20.884 C163.496,20.884 163.428,20.88 163.376,20.876 L163.376,19.588 L163.376,19.588 Z" id="Fill-7" fill="#6D6E6D"></path>
            <polyline id="Fill-8" fill="#6D6E6D" points="55.394 38.611 55.394 18.501 67.28 18.501 67.28 19.805 59.18 19.805 59.18 27.563 66.815 27.563 66.815 28.866 59.18 28.866 59.18 37.308 67.404 37.308 67.404 38.611 55.394 38.611"></polyline>
            <path d="M76.169,37.308 L78.528,37.308 C84.58,37.308 85.853,32.932 85.853,28.991 C85.853,23.932 83.494,19.805 78.714,19.805 L76.169,19.805 L76.169,37.308 Z M72.384,18.501 L78.932,18.501 C86.194,18.501 89.638,23.652 89.638,28.93 C89.638,35.353 85.511,38.611 79.646,38.611 L72.384,38.611 L72.384,18.501 L72.384,18.501 Z" id="Fill-9" fill="#6D6E6D"></path>
            <polygon id="Fill-10" fill="#6D6E6D" points="94.336 38.611 98.122 38.611 98.122 18.501 94.336 18.501"></polygon>
            <path d="M105.112,35.012 C106.167,36.687 107.285,37.587 109.271,37.587 C111.008,37.587 112.871,36.191 112.871,34.111 C112.871,28.276 103.436,31.039 103.436,23.839 C103.436,20.611 106.136,17.942 109.89,17.942 C112.374,17.942 114.887,19.308 115.943,21.542 L114.639,22.381 C113.863,20.767 112.654,19.525 110.511,19.525 C108.433,19.525 107.222,21.108 107.222,23.032 C107.222,27.749 116.657,25.763 116.657,33.025 C116.657,36.718 113.429,39.17 110.046,39.17 C107.315,39.17 105.112,38.363 103.714,36.035 L105.112,35.012" id="Fill-11" fill="#6D6E6D"></path>
            <path d="M130.005,37.867 C134.847,37.867 135.933,32.466 135.933,28.556 C135.933,24.645 134.847,19.246 130.005,19.246 C125.163,19.246 124.109,24.645 124.109,28.556 C124.109,32.466 125.163,37.867 130.005,37.867 Z M130.005,17.942 C135.84,17.942 139.998,22.629 139.998,28.556 C139.998,34.484 135.84,39.17 130.005,39.17 C124.202,39.17 120.043,34.484 120.043,28.556 C120.043,22.629 124.202,17.942 130.005,17.942 L130.005,17.942 Z" id="Fill-12" fill="#6D6E6D"></path>
            <polyline id="Fill-13" fill="#6D6E6D" points="144.292 38.611 144.292 18.501 147.675 18.501 158.195 32.343 158.257 32.343 158.257 18.501 159.871 18.501 159.871 38.611 158.195 38.611 145.968 22.566 145.906 22.566 145.906 38.611 144.292 38.611"></polyline>
            <path d="M55.84,12.536 C56.185,13.084 56.55,13.378 57.199,13.378 C57.767,13.378 58.375,12.922 58.375,12.242 C58.375,10.336 55.292,11.238 55.292,8.886 C55.292,7.831 56.174,6.959 57.401,6.959 C58.213,6.959 59.035,7.405 59.378,8.135 L58.952,8.409 C58.7,7.882 58.303,7.477 57.604,7.477 C56.925,7.477 56.53,7.993 56.53,8.622 C56.53,10.163 59.612,9.515 59.612,11.887 C59.612,13.094 58.557,13.894 57.452,13.894 C56.56,13.894 55.84,13.632 55.383,12.871 L55.84,12.536" id="Fill-14" fill="#6D6E6D"></path>
            <path d="M63.688,13.47 C65.27,13.47 65.625,11.704 65.625,10.427 C65.625,9.149 65.27,7.386 63.688,7.386 C62.106,7.386 61.762,9.149 61.762,10.427 C61.762,11.704 62.106,13.47 63.688,13.47 Z M63.688,6.959 C65.595,6.959 66.953,8.491 66.953,10.427 C66.953,12.364 65.595,13.894 63.688,13.894 C61.791,13.894 60.433,12.364 60.433,10.427 C60.433,8.491 61.791,6.959 63.688,6.959 L63.688,6.959 Z" id="Fill-15" fill="#6D6E6D"></path>
            <path d="M69.327,7.142 L69.327,11.836 C69.327,12.851 70.219,13.225 70.726,13.225 C71.304,13.225 72.308,13.023 72.308,11.897 L72.308,7.142 L72.835,7.142 L72.835,12.05 C72.835,12.892 72.196,13.894 70.533,13.894 C69.449,13.894 68.089,13.479 68.089,11.807 L68.089,7.142 L69.327,7.142" id="Fill-16" fill="#6D6E6D"></path>
            <polyline id="Fill-17" fill="#6D6E6D" points="75.208 13.712 75.208 7.567 73.901 7.567 73.901 7.142 77.753 7.142 77.753 7.567 76.445 7.567 76.445 13.712 75.208 13.712"></polyline>
            <polyline id="Fill-18" fill="#6D6E6D" points="78.799 13.712 78.799 7.142 80.037 7.142 80.037 10.031 82.734 10.031 82.734 7.142 83.971 7.142 83.971 13.712 82.734 13.712 82.734 10.549 80.037 10.549 80.037 13.712 78.799 13.712"></polyline>
            <polyline id="Fill-19" fill="#6D6E6D" points="85.625 13.712 85.625 7.142 89.509 7.142 89.509 7.567 86.862 7.567 86.862 10.102 89.357 10.102 89.357 10.528 86.862 10.528 86.862 13.287 89.549 13.287 89.549 13.712 85.625 13.712"></polyline>
            <path d="M90.85,13.712 L90.85,7.142 L93.689,7.142 C94.884,7.142 95.554,8.024 95.554,9.078 C95.554,10.082 94.825,10.518 93.841,10.64 L95.585,13.712 L94.226,13.712 L92.431,10.346 L92.513,10.346 C93.608,10.346 94.318,9.92 94.318,8.936 C94.318,8.206 93.962,7.467 92.756,7.467 L92.087,7.467 L92.087,13.712 L90.85,13.712" id="Fill-20" fill="#6D6E6D"></path>
            <polyline id="Fill-21" fill="#6D6E6D" points="96.732 13.712 96.732 7.142 97.837 7.142 101.275 11.664 101.294 11.664 101.294 7.142 101.822 7.142 101.822 13.712 101.275 13.712 97.279 8.47 97.259 8.47 97.259 13.712 96.732 13.712"></polyline>
            <path d="M112.432,8.581 C111.955,7.963 111.408,7.386 110.537,7.386 C108.934,7.386 108.122,8.561 108.122,10.458 C108.122,11.938 108.872,13.378 110.384,13.378 C111.358,13.378 112.189,12.8 112.564,11.938 L113,12.15 C112.402,13.389 111.398,13.894 110.14,13.894 C108.285,13.894 106.794,12.343 106.794,10.509 C106.794,8.409 108.335,6.959 110.261,6.959 C111.296,6.959 112.23,7.507 112.797,8.317 L112.432,8.581" id="Fill-22" fill="#6D6E6D"></path>
            <path d="M115.508,9.159 L114.554,11.573 L116.472,11.573 L115.508,9.159 Z M118.611,13.712 L117.343,13.712 L116.644,11.998 L114.383,11.998 L113.724,13.712 L113.146,13.712 L115.822,6.959 L115.843,6.959 L118.611,13.712 L118.611,13.712 Z" id="Fill-23" fill="#6D6E6D"></path>
            <polyline id="Fill-24" fill="#6D6E6D" points="119.536 13.712 119.536 7.142 120.772 7.142 120.772 13.195 123.41 13.195 123.41 13.712 119.536 13.712"></polyline>
            <polygon id="Fill-25" fill="#6D6E6D" points="124.392 13.712 125.63 13.712 125.63 7.142 124.392 7.142"></polygon>
            <polyline id="Fill-26" fill="#6D6E6D" points="127.413 13.712 127.413 7.142 131.185 7.142 131.185 7.567 128.65 7.567 128.65 10.102 130.962 10.102 130.962 10.528 128.65 10.528 128.65 13.712 127.413 13.712"></polyline>
            <path d="M134.989,13.47 C136.571,13.47 136.926,11.704 136.926,10.427 C136.926,9.149 136.571,7.386 134.989,7.386 C133.408,7.386 133.062,9.149 133.062,10.427 C133.062,11.704 133.408,13.47 134.989,13.47 Z M134.989,6.959 C136.896,6.959 138.254,8.491 138.254,10.427 C138.254,12.364 136.896,13.894 134.989,13.894 C133.092,13.894 131.734,12.364 131.734,10.427 C131.734,8.491 133.092,6.959 134.989,6.959 L134.989,6.959 Z" id="Fill-27" fill="#6D6E6D"></path>
            <path d="M139.388,13.712 L139.388,7.142 L142.228,7.142 C143.424,7.142 144.093,8.024 144.093,9.078 C144.093,10.082 143.363,10.518 142.38,10.64 L144.124,13.712 L142.765,13.712 L140.97,10.346 L141.051,10.346 C142.146,10.346 142.857,9.92 142.857,8.936 C142.857,8.206 142.501,7.467 141.294,7.467 L140.625,7.467 L140.625,13.712 L139.388,13.712" id="Fill-28" fill="#6D6E6D"></path>
            <polyline id="Fill-29" fill="#6D6E6D" points="145.271 13.712 145.271 7.142 146.376 7.142 149.814 11.664 149.833 11.664 149.833 7.142 150.361 7.142 150.361 13.712 149.814 13.712 145.819 8.47 145.798 8.47 145.798 13.712 145.271 13.712"></polyline>
            <polygon id="Fill-30" fill="#6D6E6D" points="152.097 13.712 153.333 13.712 153.333 7.142 152.097 7.142"></polygon>
            <path d="M156.771,9.159 L155.818,11.573 L157.734,11.573 L156.771,9.159 Z M159.873,13.712 L158.607,13.712 L157.907,11.998 L155.646,11.998 L154.986,13.712 L154.408,13.712 L157.085,6.959 L157.105,6.959 L159.873,13.712 L159.873,13.712 Z" id="Fill-31" fill="#6D6E6D"></path>
        </g>
    </g>
</svg>