<?xml version="1.0" encoding="UTF-8"?>
<svg width="30px" height="30px" viewBox="0 0 30 30" version="1.1" xmlns="http://www.w3.org/2000/svg" xmlns:xlink="http://www.w3.org/1999/xlink">
    <title>75062D5B-4659-4B75-8630-BA8EAD7A5DFE</title>
    <g id="Symbols" stroke="none" stroke-width="1" fill="none" fill-rule="evenodd">
        <g id="Information/Outline/30" fill="#707372">
            <path d="M15,-5.32907052e-15 C23.2842712,-5.32907052e-15 30,6.71572875 30,15 C30,23.2842712 23.2842712,30 15,30 C6.71572875,30 -5.32907052e-15,23.2842712 -5.32907052e-15,15 C-5.32907052e-15,6.71572875 6.71572875,-5.32907052e-15 15,-5.32907052e-15 Z M15,2.4 C8.04121215,2.4 2.4,8.04121215 2.4,15 C2.4,21.9587878 8.04121215,27.6 15,27.6 C21.9587878,27.6 27.6,21.9587878 27.6,15 C27.6,8.04121215 21.9587878,2.4 15,2.4 Z M16.6666667,10.9534637 L16.6666667,22.2222222 L13.3333333,22.2222222 L13.3333333,10.9534637 L16.6666667,10.9534637 Z M16.6666667,6.66666667 L16.6666667,9.42549644 L13.3333333,9.42549644 L13.3333333,6.66666667 L16.6666667,6.66666667 Z" id="Combined-Shape"></path>
        </g>
    </g>
</svg>